<svg width="274" height="274" viewBox="0 0 274 274" fill="none" xmlns="http://www.w3.org/2000/svg">
<path d="M253.5 131.937C253.5 154.723 248.679 185.504 230.871 207.91C213.807 229.382 198.668 239.369 176 252.739C169.224 256.736 143.186 265.5 143.186 265.5C122 265.5 124 265.5 90 257C123 257 149.5 252.739 143.186 252.739C121.176 252.739 94.7942 245.456 72.4714 229C38.0267 203.608 22.5 176.623 22.5 131.937C22.5 90.2117 40.3339 53.4272 72.4714 31.7235C76.7919 28.8058 89.1505 21.6474 100.757 17.269C130.517 6.04239 182 11.5 182 11.5C182 11.5 122.539 19.6285 136.586 19.6285C204 23 253.5 65.2196 253.5 131.937Z" fill="#0058CB"/>
<path d="M86.4 205C84.9333 205 83.6667 204.467 82.6 203.4C81.5333 202.333 81 201.067 81 199.6V70.4C81 68.9333 81.5333 67.6667 82.6 66.6C83.6667 65.5333 84.9333 65 86.4 65H189C190.467 65 191.733 65.5333 192.8 66.6C193.867 67.6667 194.4 68.9333 194.4 70.4V98.6C194.4 100.067 193.867 101.333 192.8 102.4C191.733 103.467 190.467 104 189 104H129V116.6H184.6C186.067 116.6 187.333 117.133 188.4 118.2C189.467 119.267 190 120.533 190 122V148C190 149.467 189.467 150.733 188.4 151.8C187.333 152.867 186.067 153.4 184.6 153.4H129V166H190.6C192.067 166 193.333 166.533 194.4 167.6C195.467 168.667 196 169.933 196 171.4V199.6C196 201.067 195.467 202.333 194.4 203.4C193.333 204.467 192.067 205 190.6 205H86.4ZM153.6 73.6C153.067 72.5333 152.4 72.1333 151.6 72.4C150.933 72.6667 150.067 72.8667 149 73C147.8 73.1333 146.8 73.1333 146 73C145.2 72.8667 144.733 73.4 144.6 74.6C144.333 75.8 144.467 76.6 145 77C145.533 77.4 146.4 77.9333 147.6 78.6C148.667 79.1333 149.467 79.6 150 80C150.667 80.2667 151.467 80 152.4 79.2C153.467 78.2667 154.067 77.4667 154.2 76.8C154.333 76 154.133 74.9333 153.6 73.6ZM97 74.8C96.0667 73.8667 95.2 73.3333 94.4 73.2C93.7333 72.9333 92.8 73.0667 91.6 73.6C90 74.4 88.7333 75.0667 87.8 75.6C86.8667 76 86.4667 77.0667 86.6 78.8C86.8667 80.5333 87.5333 81.4667 88.6 81.6C89.6667 81.7333 91.0667 82 92.8 82.4C94.2667 82.6667 95.4 82.8 96.2 82.8C97.1333 82.8 97.9333 82.1333 98.6 80.8C99.4 79.4667 99.6 78.4667 99.2 77.8C98.8 77 98.0667 76 97 74.8ZM176.2 75.6C175.267 74.6667 174.4 74.3333 173.6 74.6C172.933 74.7333 172 75.1333 170.8 75.8C169.467 76.4667 168.4 77 167.6 77.4C166.933 77.6667 166.667 78.5333 166.8 80C167.067 81.4667 167.6 82.2667 168.4 82.4C169.2 82.5333 170.333 82.7333 171.8 83C173.133 83.2667 174.2 83.4667 175 83.6C175.933 83.7333 176.733 83.1333 177.4 81.8C178.067 80.4667 178.267 79.4 178 78.6C177.867 77.8 177.267 76.8 176.2 75.6ZM140.8 77.8C140.8 76.8667 140.667 76.2 140.4 75.8C140.267 75.4 139.8 75.1333 139 75C138.067 74.7333 137.333 74.6667 136.8 74.8C136.4 74.8 135.933 75.1333 135.4 75.8C134.6 77.1333 134.667 78.4667 135.6 79.8C136.133 80.4667 136.6 80.8 137 80.8C137.533 80.6667 138.2 80.4667 139 80.2C140.2 79.8 140.8 79 140.8 77.8ZM128.8 77.6L127.6 76.6L126.6 77.6V79.2L128.4 79.4L128.8 77.6ZM184.8 79.6L183 78.8L181.4 79.4L181.8 81.4H183.8L184.8 79.6ZM119.8 81.6C118.2 81.0667 117.067 81.1333 116.4 81.8C115.867 82.4667 115.133 83.4667 114.2 84.8C113.267 86.1333 112.6 87.2 112.2 88C111.8 88.6667 112.067 89.6667 113 91C114.067 92.3333 115 93.2 115.8 93.6C116.733 93.8667 118 93.7333 119.6 93.2C121.2 92.6667 122.067 92 122.2 91.2C122.333 90.2667 122.4 89 122.4 87.4C122.4 85.8 122.333 84.5333 122.2 83.6C122.067 82.6667 121.267 82 119.8 81.6ZM103.8 84.2L102.6 85.2L103 86.6L104.8 87.2L105.2 85.2L103.8 84.2ZM148.6 88.2C148.067 87.8 147.6 87.7333 147.2 88C146.8 88.2667 146.333 88.6667 145.8 89.2C145.267 89.6 144.8 89.9333 144.4 90.2C144 90.3333 143.933 90.7333 144.2 91.4C144.467 92.2 144.733 92.8 145 93.2C145.267 93.6 145.867 93.8 146.8 93.8C148.133 93.8 149.067 93.0667 149.6 91.6C150.133 90.2667 149.8 89.1333 148.6 88.2ZM172.6 92.8C171.933 92.5333 171.467 92.6 171.2 93C171.067 93.4 170.733 93.8667 170.2 94.4C169.8 94.9333 169.467 95.4 169.2 95.8C169.067 96.0667 169.2 96.4667 169.6 97C170.133 97.6667 171 97.8667 172.2 97.6C172.867 97.3333 173.4 97.1333 173.8 97C174.333 96.8667 174.6 96.4667 174.6 95.8C174.733 94.3333 174.067 93.3333 172.6 92.8ZM99.4 100C98.4667 99.3333 97.7333 98.8 97.2 98.4C96.8 97.8667 96.1333 97.9333 95.2 98.6C94.1333 99.2667 93.4667 99.9333 93.2 100.6C92.9333 101.267 93 102.2 93.4 103.4C93.6667 104.6 94.0667 105.333 94.6 105.6C95.2667 105.733 96.2 105.8 97.4 105.8C98.7333 105.8 99.7333 105.8 100.4 105.8C101.067 105.667 101.667 105 102.2 103.8C102.6 102.733 102.467 102 101.8 101.6C101.133 101.2 100.333 100.667 99.4 100ZM111.6 101.6L109.8 102.6L109.6 103.8L110.8 105.2L111.8 103.6L111.6 101.6ZM97.2 114.4C95.7333 114 94.6667 114.067 94 114.6C93.3333 115 92.5333 115.8 91.6 117C90.8 118.2 90.3333 119.2 90.2 120C90.2 120.667 90.6667 121.533 91.6 122.6C92.4 123.8 93.1333 124.667 93.8 125.2C94.6 125.6 95.7333 125.6 97.2 125.2C98.5333 124.667 99.2 124 99.2 123.2C99.3333 122.4 99.4 121.267 99.4 119.8C99.4 118.333 99.3333 117.2 99.2 116.4C99.2 115.6 98.5333 114.933 97.2 114.4ZM129 127.8C127.267 126.867 125.867 126.467 124.8 126.6C123.867 126.733 122.667 127.4 121.2 128.6C119.733 130.067 118.8 131.333 118.4 132.4C118 133.333 118.2 134.733 119 136.6C119.933 138.733 120.8 140.333 121.6 141.4C122.533 142.467 124.2 142.867 126.6 142.6C129 142.333 130.467 141.667 131 140.6C131.667 139.4 132.267 137.6 132.8 135.2C133.2 133.2 133.067 131.733 132.4 130.8C131.867 129.867 130.733 128.867 129 127.8ZM147.2 128.4C146.4 127.467 145.333 127.267 144 127.8C143.2 128.067 142.667 128.4 142.4 128.8C142.133 129.067 142 129.6 142 130.4C142.133 131.867 142.933 132.8 144.4 133.2C145.067 133.333 145.533 133.267 145.8 133C146.067 132.6 146.4 132.067 146.8 131.4C147.2 130.733 147.467 130.2 147.6 129.8C147.733 129.4 147.6 128.933 147.2 128.4ZM103.4 134.2C102.733 133.667 102.133 133.333 101.6 133.2C101.2 133.067 100.667 133.267 100 133.8C99.0667 134.333 98.4667 134.867 98.2 135.4C97.9333 135.8 97.9333 136.533 98.2 137.6C98.4667 138.533 98.8667 139.2 99.4 139.6C99.9333 139.867 100.733 140 101.8 140C102.733 140 103.4 139.8 103.8 139.4C104.2 139 104.533 138.333 104.8 137.4C105.067 136.6 105.067 136 104.8 135.6C104.667 135.2 104.2 134.733 103.4 134.2ZM154 135L152.2 133.8L150.4 134.6L151 136.8H153L154 135ZM90.2 135L87.6 135.4L88 138.2L90.4 138.6L92.2 136.8L90.2 135ZM145.4 140.8C144.6 140.267 144 139.8 143.6 139.4C143.333 138.867 142.8 138.867 142 139.4C140.4 140.467 139.867 141.867 140.4 143.6C140.533 144.533 140.867 145 141.4 145C142.067 145 142.867 145 143.8 145C144.733 145 145.4 145 145.8 145C146.333 145 146.733 144.6 147 143.8C147.267 143 147.2 142.467 146.8 142.2C146.533 141.8 146.067 141.333 145.4 140.8ZM104.2 144.2L103.2 144.8L102.8 146.4L104.6 146.8L105.4 145.4L104.2 144.2ZM110.6 151.8C109.667 151 108.933 150.267 108.4 149.6C108 148.933 107.267 148.933 106.2 149.6C105.133 150.133 104.733 150.8 105 151.6C105.4 152.267 105.733 153.2 106 154.4C106.267 155.333 106.467 156.067 106.6 156.6C106.867 157.133 107.467 157.467 108.4 157.6C109.6 157.733 110.467 157.667 111 157.4C111.533 157.133 112 156.467 112.4 155.4C112.8 154.467 112.733 153.8 112.2 153.4C111.8 153 111.267 152.467 110.6 151.8ZM95.4 151.8C94.3333 151.667 93.4667 151.6 92.8 151.6C92.2667 151.6 91.8 152.133 91.4 153.2C90.6 154.933 90.8667 156.467 92.2 157.8C93.1333 158.6 93.9333 159.133 94.6 159.4C95.2667 159.533 96.1333 159.267 97.2 158.6C98.1333 158.067 98.4667 157.467 98.2 156.8C98.0667 156.133 97.9333 155.267 97.8 154.2C97.5333 152.733 96.7333 151.933 95.4 151.8ZM95.6 166.8C95.6 166 95.6 165.333 95.6 164.8C95.6 164.133 95.1333 163.733 94.2 163.6C93.4 163.333 92.8667 163.467 92.6 164C92.4667 164.533 92.2 165.2 91.8 166C91.2667 166.8 91.2667 167.533 91.8 168.2C92.3333 168.733 92.7333 169.133 93 169.4C93.2667 169.667 93.7333 169.667 94.4 169.4C95.3333 169 95.7333 168.133 95.6 166.8ZM108.4 175.4C108.4 174.067 108.2 173.133 107.8 172.6C107.533 171.933 106.8 171.4 105.6 171C103.867 170.467 102.533 170.133 101.6 170C100.667 169.867 99.7333 170.533 98.8 172C97.8667 173.333 97.7333 174.4 98.4 175.2C99.2 175.867 100.067 176.8 101 178C101.933 179.067 102.667 179.867 103.2 180.4C103.733 180.933 104.667 180.933 106 180.4C107.333 180 108.067 179.467 108.2 178.8C108.333 178 108.4 176.867 108.4 175.4ZM161.2 172.8C159.333 172.133 158 172.2 157.2 173C156.4 173.8 155.467 175 154.4 176.6C153.333 178.2 152.533 179.533 152 180.6C151.6 181.533 151.933 182.733 153 184.2C154.2 185.8 155.333 186.467 156.4 186.2C157.467 185.8 158.867 185.333 160.6 184.8C162.067 184.267 163 183.667 163.4 183C163.8 182.333 164 181.267 164 179.8C164 177.8 163.933 176.267 163.8 175.2C163.8 174.133 162.933 173.333 161.2 172.8ZM120.4 179.4L117.6 178.6L117.2 181.4L118.8 182.6L120.2 181.6L120.4 179.4ZM186.8 184.4C186.533 183.467 186.267 182.733 186 182.2C185.733 181.667 185.133 181.4 184.2 181.4C183 181.4 182.067 181.533 181.4 181.8C180.867 182.067 180.4 182.733 180 183.8C179.6 184.733 179.6 185.467 180 186C180.533 186.4 181.267 186.933 182.2 187.6C183.133 188.4 183.867 189.133 184.4 189.8C185.067 190.333 185.933 190.267 187 189.6C188.067 188.8 188.4 188.067 188 187.4C187.6 186.6 187.2 185.6 186.8 184.4ZM131.4 183.4L129.4 183.2L129.2 185.2L130.8 186.2L131.8 184.8L131.4 183.4ZM140.2 196H138.6L138.4 197.4L139.8 198.2L140.8 197.2L140.2 196Z" fill="white"/>
<rect x="0.5" y="0.5" width="273" height="273" rx="136.5" stroke="black"/>
</svg>
